<svg width="26" height="26" viewBox="0 0 26 26" fill="none" xmlns="http://www.w3.org/2000/svg">
<path d="M24.6316 20.3849C24.6316 20.8049 24.5383 21.2366 24.34 21.6566C24.1416 22.0766 23.885 22.4733 23.5466 22.8466C22.975 23.4766 22.345 23.9316 21.6333 24.2233C20.9333 24.5149 20.175 24.6666 19.3583 24.6666C18.1683 24.6666 16.8966 24.3866 15.555 23.8149C14.2133 23.2433 12.8716 22.4733 11.5416 21.5049C10.2 20.5249 8.92831 19.4399 7.71498 18.2383C6.51331 17.0249 5.42831 15.7533 4.45998 14.4233C3.50331 13.0933 2.73331 11.7633 2.17331 10.4449C1.61331 9.11492 1.33331 7.84325 1.33331 6.62992C1.33331 5.83659 1.47331 5.07825 1.75331 4.37825C2.03331 3.66659 2.47665 3.01325 3.09498 2.42992C3.84165 1.69492 4.65831 1.33325 5.52165 1.33325C5.84831 1.33325 6.17498 1.40325 6.46665 1.54325C6.76998 1.68325 7.03831 1.89325 7.24831 2.19659L9.95498 6.01159C10.165 6.30325 10.3166 6.57159 10.4216 6.82825C10.5266 7.07325 10.585 7.31825 10.585 7.53992C10.585 7.81992 10.5033 8.09992 10.34 8.36825C10.1883 8.63658 9.96665 8.91658 9.68665 9.19658L8.79998 10.1183C8.67165 10.2466 8.61331 10.3983 8.61331 10.5849C8.61331 10.6783 8.62498 10.7599 8.64831 10.8533C8.68331 10.9466 8.71831 11.0166 8.74165 11.0866C8.95165 11.4716 9.31331 11.9733 9.82665 12.5799C10.3516 13.1866 10.9116 13.8049 11.5183 14.4233C12.1483 15.0416 12.755 15.6133 13.3733 16.1383C13.98 16.6516 14.4816 17.0016 14.8783 17.2116C14.9366 17.2349 15.0066 17.2699 15.0883 17.3049C15.1816 17.3399 15.275 17.3516 15.38 17.3516C15.5783 17.3516 15.73 17.2816 15.8583 17.1533L16.745 16.2783C17.0366 15.9866 17.3166 15.7649 17.585 15.6249C17.8533 15.4616 18.1216 15.3799 18.4133 15.3799C18.635 15.3799 18.8683 15.4266 19.125 15.5316C19.3816 15.6366 19.65 15.7883 19.9416 15.9866L23.8033 18.7283C24.1066 18.9383 24.3166 19.1833 24.445 19.4749C24.5616 19.7666 24.6316 20.0583 24.6316 20.3849Z" stroke="black" stroke-width="1.5" stroke-miterlimit="10"/>
</svg>
