<svg width="28" height="28" viewBox="0 0 28 28" fill="none" xmlns="http://www.w3.org/2000/svg">
<path d="M14 25.6666C20.4434 25.6666 25.6667 20.4432 25.6667 13.9999C25.6667 7.5566 20.4434 2.33325 14 2.33325C7.55672 2.33325 2.33337 7.5566 2.33337 13.9999C2.33337 20.4432 7.55672 25.6666 14 25.6666Z" stroke="black" stroke-width="1.5" stroke-linecap="round" stroke-linejoin="round"/>
<path d="M9.33328 3.5H10.5C8.22495 10.3133 8.22495 17.6867 10.5 24.5H9.33328" stroke="black" stroke-width="1.5" stroke-linecap="round" stroke-linejoin="round"/>
<path d="M17.5 3.5C19.775 10.3133 19.775 17.6867 17.5 24.5" stroke="black" stroke-width="1.5" stroke-linecap="round" stroke-linejoin="round"/>
<path d="M3.5 18.6667V17.5C10.3133 19.775 17.6867 19.775 24.5 17.5V18.6667" stroke="black" stroke-width="1.5" stroke-linecap="round" stroke-linejoin="round"/>
<path d="M3.5 10.5C10.3133 8.22495 17.6867 8.22495 24.5 10.5" stroke="black" stroke-width="1.5" stroke-linecap="round" stroke-linejoin="round"/>
</svg>
