<svg width="30" height="30" viewBox="0 0 30 30" fill="none" xmlns="http://www.w3.org/2000/svg">
<path d="M28.2934 23.44C28.2934 23.92 28.1867 24.4133 27.96 24.8933C27.7334 25.3733 27.44 25.8266 27.0534 26.2533C26.4 26.9733 25.68 27.4933 24.8667 27.8266C24.0667 28.16 23.2 28.3333 22.2667 28.3333C20.9067 28.3333 19.4534 28.0133 17.92 27.36C16.3867 26.7066 14.8534 25.8266 13.3334 24.72C11.8 23.6 10.3467 22.36 8.96002 20.9866C7.58669 19.6 6.34669 18.1466 5.24002 16.6266C4.14669 15.1066 3.26669 13.5866 2.62669 12.08C1.98669 10.56 1.66669 9.10663 1.66669 7.71996C1.66669 6.81329 1.82669 5.94663 2.14669 5.14663C2.46669 4.33329 2.97335 3.58663 3.68002 2.91996C4.53335 2.07996 5.46669 1.66663 6.45335 1.66663C6.82669 1.66663 7.20002 1.74663 7.53335 1.90663C7.88002 2.06663 8.18669 2.30663 8.42669 2.65329L11.52 7.01329C11.76 7.34663 11.9334 7.65329 12.0534 7.94663C12.1734 8.22663 12.24 8.50663 12.24 8.75996C12.24 9.07996 12.1467 9.39996 11.96 9.70663C11.7867 10.0133 11.5334 10.3333 11.2134 10.6533L10.2 11.7066C10.0534 11.8533 9.98669 12.0266 9.98669 12.24C9.98669 12.3466 10 12.44 10.0267 12.5466C10.0667 12.6533 10.1067 12.7333 10.1334 12.8133C10.3734 13.2533 10.7867 13.8266 11.3734 14.52C11.9734 15.2133 12.6134 15.92 13.3067 16.6266C14.0267 17.3333 14.72 17.9866 15.4267 18.5866C16.12 19.1733 16.6934 19.5733 17.1467 19.8133C17.2134 19.84 17.2934 19.88 17.3867 19.92C17.4934 19.96 17.6 19.9733 17.72 19.9733C17.9467 19.9733 18.12 19.8933 18.2667 19.7466L19.28 18.7466C19.6134 18.4133 19.9334 18.16 20.24 18C20.5467 17.8133 20.8534 17.72 21.1867 17.72C21.44 17.72 21.7067 17.7733 22 17.8933C22.2934 18.0133 22.6 18.1866 22.9334 18.4133L27.3467 21.5466C27.6934 21.7866 27.9334 22.0666 28.08 22.4C28.2134 22.7333 28.2934 23.0666 28.2934 23.44Z" stroke="#C5FF2E" stroke-opacity="0.85" stroke-width="2" stroke-miterlimit="10"/>
</svg>
